# xmcd CD database file
#
# Track frame offsets:
#	150
#	19507
#	36327
#	54995
#
# Disc length: 988 seconds
#
# Revision: 0
# Processed by: cddbd v1.5PL3 Copyright (c) Steve Scherf et al.
# Submitted via: CDex 1.50
#
DISCID=2703da04
DTITLE=Theつんくビート - すっごいね
DYEAR=1900
DGENRE=J-pop
TTITLE0=すっごいね
TTITLE1=OK
TTITLE2=明日が来る前に
TTITLE3=すっごいね(Inst)
EXTD=
EXTT0=
EXTT1=
EXTT2=
EXTT3=
PLAYORDER=
